<?xml version="1.0" encoding="UTF-8"?>
<svg version="1.1" xmlns="http://www.w3.org/2000/svg" width="827" height="251">
<path d="M0 0 C272.91 0 545.82 0 827 0 C827 82.83 827 165.66 827 251 C554.09 251 281.18 251 0 251 C0 168.17 0 85.34 0 0 Z " fill="#282928" transform="translate(0,0)"/>
<path d="M0 0 C12.87 0 25.74 0 39 0 C39 2.97 39 5.94 39 9 C41.97 9 44.94 9 48 9 C48 6.03 48 3.06 48 0 C57.9 0 67.8 0 78 0 C78 6.27 78 12.54 78 19 C80.97 19 83.94 19 87 19 C87 15.7 87 12.4 87 9 C89.97 9 92.94 9 96 9 C96 6.03 96 3.06 96 0 C112.17 0 128.34 0 145 0 C145 12.54 145 25.08 145 38 C138.4 38 131.8 38 125 38 C125 28.76 125 19.52 125 10 C122.03 10 119.06 10 116 10 C116 12.97 116 15.94 116 19 C113.03 19 110.06 19 107 19 C107 22.3 107 25.6 107 29 C103.7 29 100.4 29 97 29 C97 41.54 97 54.08 97 67 C99.97 67 102.94 67 106 67 C106 69.97 106 72.94 106 76 C96.43 76 86.86 76 77 76 C77 60.49 77 44.98 77 29 C70.73 29 64.46 29 58 29 C58 25.7 58 22.4 58 19 C55.03 19 52.06 19 49 19 C49 22.3 49 25.6 49 29 C45.7 29 42.4 29 39 29 C39 44.51 39 60.02 39 76 C32.4 76 25.8 76 19 76 C19 57.19 19 38.38 19 19 C16.03 19 13.06 19 10 19 C10 15.7 10 12.4 10 9 C6.7 9 3.4 9 0 9 C0 6.03 0 3.06 0 0 Z " fill="#E7D9B0" transform="translate(145,75)"/>
<path d="M0 0 C6.93 0 13.86 0 21 0 C21 2.97 21 5.94 21 9 C23.97 9 26.94 9 30 9 C30 15.27 30 21.54 30 28 C33.3 28 36.6 28 40 28 C40 37.57 40 47.14 40 57 C42.97 57 45.94 57 49 57 C49 63.27 49 69.54 49 76 C52.3 76 55.6 76 59 76 C59 82.27 59 88.54 59 95 C52.4 95 45.8 95 39 95 C39 88.73 39 82.46 39 76 C20.19 76 1.38 76 -18 76 C-18 79.3 -18 82.6 -18 86 C-21.3 86 -24.6 86 -28 86 C-28 88.97 -28 91.94 -28 95 C-31.3 95 -34.6 95 -38 95 C-38 88.73 -38 82.46 -38 76 C-34.7 76 -31.4 76 -28 76 C-28 66.43 -28 56.86 -28 47 C-25.03 47 -22.06 47 -19 47 C-19 40.73 -19 34.46 -19 28 C-15.7 28 -12.4 28 -9 28 C-9 21.73 -9 15.46 -9 9 C-6.03 9 -3.06 9 0 9 C0 6.03 0 3.06 0 0 Z " fill="#E6D7AF" transform="translate(77,56)"/>
<path d="M0 0 C28.71 0 57.42 0 87 0 C87 3.3 87 6.6 87 10 C89.97 10 92.94 10 96 10 C96 31.78 96 53.56 96 76 C86.43 76 76.86 76 67 76 C67 73.03 67 70.06 67 67 C70.3 67 73.6 67 77 67 C77 54.13 77 41.26 77 28 C73.7 28 70.4 28 67 28 C67 25.03 67 22.06 67 19 C57.43 19 47.86 19 38 19 C38 37.81 38 56.62 38 76 C31.73 76 25.46 76 19 76 C19 57.19 19 38.38 19 19 C16.03 19 13.06 19 10 19 C10 37.81 10 56.62 10 76 C6.7 76 3.4 76 0 76 C0 57.19 0 38.38 0 19 C2.97 19 5.94 19 9 19 C9 15.7 9 12.4 9 9 C6.03 9 3.06 9 0 9 C0 6.03 0 3.06 0 0 Z " fill="#E8DAB1" transform="translate(579,75)"/>
<path d="M0 0 C6.6 0 13.2 0 20 0 C20 6.27 20 12.54 20 19 C35.84 19 51.68 19 68 19 C68 21.97 68 24.94 68 28 C71.3 28 74.6 28 78 28 C78 50.11 78 72.22 78 95 C71.4 95 64.8 95 58 95 C58 76.19 58 57.38 58 38 C45.46 38 32.92 38 20 38 C20 56.81 20 75.62 20 95 C10.43 95 0.86 95 -9 95 C-9 92.03 -9 89.06 -9 86 C-6.03 86 -3.06 86 0 86 C0 57.62 0 29.24 0 0 Z " fill="#E7D8AF" transform="translate(299,56)"/>
<path d="M0 0 C12.87 0 25.74 0 39 0 C39 2.97 39 5.94 39 9 C42.3 9 45.6 9 49 9 C49 31.11 49 53.22 49 76 C42.4 76 35.8 76 29 76 C29 69.73 29 63.46 29 57 C19.76 57 10.52 57 1 57 C1 63.27 1 69.54 1 76 C-5.6 76 -12.2 76 -19 76 C-19 69.73 -19 63.46 -19 57 C-15.7 57 -12.4 57 -9 57 C-9 54.03 -9 51.06 -9 48 C-6.03 48 -3.06 48 0 48 C0 44.7 0 41.4 0 38 C-6.27 38 -12.54 38 -19 38 C-19 31.73 -19 25.46 -19 19 C-16.03 19 -13.06 19 -10 19 C-10 15.7 -10 12.4 -10 9 C-6.7 9 -3.4 9 0 9 C0 6.03 0 3.06 0 0 Z " fill="#E7D9B0" transform="translate(742,75)"/>
<path d="M0 0 C15.84 0 31.68 0 48 0 C48 3.3 48 6.6 48 10 C50.97 10 53.94 10 57 10 C57 31.78 57 53.56 57 76 C50.73 76 44.46 76 38 76 C38 72.7 38 69.4 38 66 C41.3 66 44.6 66 48 66 C48 53.79 48 41.58 48 29 C44.7 29 41.4 29 38 29 C38 25.7 38 22.4 38 19 C35.03 19 32.06 19 29 19 C29 15.7 29 12.4 29 9 C25.7 9 22.4 9 19 9 C19 12.3 19 15.6 19 19 C16.03 19 13.06 19 10 19 C10 22.3 10 25.6 10 29 C6.7 29 3.4 29 0 29 C0 41.54 0 54.08 0 67 C3.3 67 6.6 67 10 67 C10 69.97 10 72.94 10 76 C0.43 76 -9.14 76 -19 76 C-19 57.19 -19 38.38 -19 19 C-16.03 19 -13.06 19 -10 19 C-10 15.7 -10 12.4 -10 9 C-6.7 9 -3.4 9 0 9 C0 6.03 0 3.06 0 0 Z " fill="#E7D8B0" transform="translate(521,75)"/>
<path d="M0 0 C6.6 0 13.2 0 20 0 C20 6.27 20 12.54 20 19 C26.27 19 32.54 19 39 19 C39 25.27 39 31.54 39 38 C32.73 38 26.46 38 20 38 C20 56.81 20 75.62 20 95 C13.4 95 6.8 95 0 95 C0 76.19 0 57.38 0 38 C-6.27 38 -12.54 38 -19 38 C-19 31.73 -19 25.46 -19 19 C-12.73 19 -6.46 19 0 19 C0 12.73 0 6.46 0 0 Z " fill="#E8D9B1" transform="translate(453,56)"/>
<path d="M0 0 C22.44 0 44.88 0 68 0 C68 3.3 68 6.6 68 10 C64.7 10 61.4 10 58 10 C58 12.97 58 15.94 58 19 C45.13 19 32.26 19 19 19 C19 25.27 19 31.54 19 38 C22.3 38 25.6 38 29 38 C29 40.97 29 43.94 29 47 C32.3 47 35.6 47 39 47 C39 50.3 39 53.6 39 57 C19.86 57 0.72 57 -19 57 C-19 54.03 -19 51.06 -19 48 C-16.03 48 -13.06 48 -10 48 C-10 44.7 -10 41.4 -10 38 C-6.7 38 -3.4 38 0 38 C0 25.46 0 12.92 0 0 Z " fill="#E7D9B0" transform="translate(598,152)"/>
<path d="M0 0 C3.3 0 6.6 0 10 0 C10 3.3 10 6.6 10 10 C12.97 10 15.94 10 19 10 C19 13.3 19 16.6 19 20 C22.3 20 25.6 20 29 20 C29 32.21 29 44.42 29 57 C25.7 57 22.4 57 19 57 C19.495 62.445 19.495 62.445 20 68 C10.1 68 0.2 68 -10 68 C-9.67 64.7 -9.34 61.4 -9 58 C-12.3 58 -15.6 58 -19 58 C-19 45.46 -19 32.92 -19 20 C-15.7 20 -12.4 20 -9 20 C-9 16.7 -9 13.4 -9 10 C-6.03 10 -3.06 10 0 10 C0 6.7 0 3.4 0 0 Z " fill="#2A2A29" transform="translate(540,84)"/>
<path d="M0 0 C12.54 0 25.08 0 38 0 C38 3.3 38 6.6 38 10 C41.3 10 44.6 10 48 10 C48 6.7 48 3.4 48 0 C70.44 0 92.88 0 116 0 C116 2.97 116 5.94 116 9 C118.97 9 121.94 9 125 9 C125 12.3 125 15.6 125 19 C115.43 19 105.86 19 96 19 C96 16.03 96 13.06 96 10 C93.03 10 90.06 10 87 10 C87 12.97 87 15.94 87 19 C54.99 19 22.98 19 -10 19 C-10 16.03 -10 13.06 -10 10 C-6.7 10 -3.4 10 0 10 C0 6.7 0 3.4 0 0 Z " fill="#E7D8B0" transform="translate(685,152)"/>
<path d="M0 0 C9.57 0 19.14 0 29 0 C29 2.97 29 5.94 29 9 C32.3 9 35.6 9 39 9 C39 21.87 39 34.74 39 48 C35.7 48 32.4 48 29 48 C29 50.97 29 53.94 29 57 C35.6 57 42.2 57 49 57 C49 57.33 49 57.66 49 58 C32.5 58 16 58 -1 58 C-0.67 38.86 -0.34 19.72 0 0 Z " fill="#2C2D2B" transform="translate(617,94)"/>
<path d="M0 0 C0.33 0 0.66 0 1 0 C1 6.27 1 12.54 1 19 C3.97 19 6.94 19 10 19 C10 15.7 10 12.4 10 9 C13.3 9 16.6 9 20 9 C20 12.3 20 15.6 20 19 C22.97 19 25.94 19 29 19 C29 25.27 29 31.54 29 38 C26.03 38 23.06 38 20 38 C20 44.27 20 50.54 20 57 C13.73 57 7.46 57 1 57 C1 63.27 1 69.54 1 76 C-5.6 76 -12.2 76 -19 76 C-19 69.73 -19 63.46 -19 57 C-15.7 57 -12.4 57 -9 57 C-9 54.03 -9 51.06 -9 48 C-6.03 48 -3.06 48 0 48 C0 44.7 0 41.4 0 38 C-6.27 38 -12.54 38 -19 38 C-19 31.73 -19 25.46 -19 19 C-16.03 19 -13.06 19 -10 19 C-10 15.7 -10 12.4 -10 9 C-6.7 9 -3.4 9 0 9 C0 6.03 0 3.06 0 0 Z " fill="#DBCDA7" transform="translate(742,75)"/>
<path d="M0 0 C12.87 0 25.74 0 39 0 C39 25.08 39 50.16 39 76 C32.4 76 25.8 76 19 76 C19 57.19 19 38.38 19 19 C16.03 19 13.06 19 10 19 C10 15.7 10 12.4 10 9 C6.7 9 3.4 9 0 9 C0 6.03 0 3.06 0 0 Z " fill="#E7D9B0" transform="translate(675,75)"/>
<path d="M0 0 C12.87 0 25.74 0 39 0 C39 25.08 39 50.16 39 76 C32.4 76 25.8 76 19 76 C19 57.19 19 38.38 19 19 C16.03 19 13.06 19 10 19 C10 15.7 10 12.4 10 9 C6.7 9 3.4 9 0 9 C0 6.03 0 3.06 0 0 Z " fill="#E7D9B0" transform="translate(386,75)"/>
<path d="M0 0 C31.68 0 63.36 0 96 0 C96 6.27 96 12.54 96 19 C83.46 19 70.92 19 58 19 C58 15.7 58 12.4 58 9 C54.7 9 51.4 9 48 9 C48 12.3 48 15.6 48 19 C32.16 19 16.32 19 0 19 C0 12.73 0 6.46 0 0 Z " fill="#E9DAB1" transform="translate(232,152)"/>
<path d="M0 0 C12.54 0 25.08 0 38 0 C38 3.3 38 6.6 38 10 C41.3 10 44.6 10 48 10 C48 6.7 48 3.4 48 0 C60.87 0 73.74 0 87 0 C87 3.3 87 6.6 87 10 C89.97 10 92.94 10 96 10 C96 12.97 96 15.94 96 19 C61.02 19 26.04 19 -10 19 C-10 16.03 -10 13.06 -10 10 C-6.7 10 -3.4 10 0 10 C0 6.7 0 3.4 0 0 Z " fill="#E8D9B1" transform="translate(107,152)"/>
<path d="M0 0 C12.87 0 25.74 0 39 0 C39 3.3 39 6.6 39 10 C42.3 10 45.6 10 49 10 C49 6.7 49 3.4 49 0 C61.54 0 74.08 0 87 0 C87 3.3 87 6.6 87 10 C90.3 10 93.6 10 97 10 C97 12.97 97 15.94 97 19 C64.99 19 32.98 19 0 19 C0 12.73 0 6.46 0 0 Z " fill="#E9DAB1" transform="translate(347,152)"/>
<path d="M0 0 C0.33 0 0.66 0 1 0 C1 3.3 1 6.6 1 10 C-1.97 10 -4.94 10 -8 10 C-8 19.24 -8 28.48 -8 38 C-5.03 38 -2.06 38 1 38 C1 35.03 1 32.06 1 29 C3.97 29 6.94 29 10 29 C10 35.27 10 41.54 10 48 C13.3 48 16.6 48 20 48 C20 50.97 20 53.94 20 57 C10.43 57 0.86 57 -9 57 C-9 47.76 -9 38.52 -9 29 C-11.97 29 -14.94 29 -18 29 C-18 47.81 -18 66.62 -18 86 C-21.3 86 -24.6 86 -28 86 C-28 88.97 -28 91.94 -28 95 C-31.3 95 -34.6 95 -38 95 C-38 88.73 -38 82.46 -38 76 C-34.7 76 -31.4 76 -28 76 C-28 66.43 -28 56.86 -28 47 C-25.03 47 -22.06 47 -19 47 C-19 40.73 -19 34.46 -19 28 C-15.7 28 -12.4 28 -9 28 C-9 21.73 -9 15.46 -9 9 C-6.03 9 -3.06 9 0 9 C0 6.03 0 3.06 0 0 Z " fill="#DBCDA7" transform="translate(77,56)"/>
<path d="M0 0 C22.44 0 44.88 0 68 0 C68 2.97 68 5.94 68 9 C64.7 9 61.4 9 58 9 C58 12.3 58 15.6 58 19 C42.16 19 26.32 19 10 19 C10 16.03 10 13.06 10 10 C6.7 10 3.4 10 0 10 C0 6.7 0 3.4 0 0 Z " fill="#E7D9B0" transform="translate(511,152)"/>
<path d="M0 0 C16.17 0 32.34 0 49 0 C49 6.27 49 12.54 49 19 C36.13 19 23.26 19 10 19 C10 16.03 10 13.06 10 10 C6.7 10 3.4 10 0 10 C0 6.7 0 3.4 0 0 Z " fill="#E6D8AF" transform="translate(453,152)"/>
<path d="M0 0 C9.57 0 19.14 0 29 0 C29 3.3 29 6.6 29 10 C31.97 10 34.94 10 38 10 C38 12.97 38 15.94 38 19 C22.16 19 6.32 19 -10 19 C-10 16.03 -10 13.06 -10 10 C-6.7 10 -3.4 10 0 10 C0 6.7 0 3.4 0 0 Z " fill="#E9DAB1" transform="translate(30,152)"/>
<path d="M0 0 C3.3 0 6.6 0 10 0 C10 3.3 10 6.6 10 10 C12.97 10 15.94 10 19 10 C19 16.27 19 22.54 19 29 C9.76 29 0.52 29 -9 29 C-9 22.73 -9 16.46 -9 10 C-6.03 10 -3.06 10 0 10 C0 6.7 0 3.4 0 0 Z " fill="#2B2C2A" transform="translate(752,84)"/>
<path d="M0 0 C9.57 0 19.14 0 29 0 C29 6.27 29 12.54 29 19 C19.43 19 9.86 19 0 19 C0 12.73 0 6.46 0 0 Z " fill="#E8D9B1" transform="translate(290,36)"/>
<path d="M0 0 C2.97 0 5.94 0 9 0 C9 6.27 9 12.54 9 19 C12.3 19 15.6 19 19 19 C19 21.97 19 24.94 19 28 C9.76 28 0.52 28 -9 28 C-9 21.73 -9 15.46 -9 9 C-6.03 9 -3.06 9 0 9 C0 6.03 0 3.06 0 0 Z " fill="#282928" transform="translate(78,85)"/>
<path d="M0 0 C2.97 0 5.94 0 9 0 C9 9.24 9 18.48 9 28 C6.03 28 3.06 28 0 28 C0 31.3 0 34.6 0 38 C-2.97 38 -5.94 38 -9 38 C-9 28.76 -9 19.52 -9 10 C-6.03 10 -3.06 10 0 10 C0 6.7 0 3.4 0 0 Z " fill="#EADBB2" transform="translate(78,56)"/>
<path d="M0 0 C0.33 0 0.66 0 1 0 C1 31.35 1 62.7 1 95 C0.67 95 0.34 95 0 95 C0 76.19 0 57.38 0 38 C-6.27 38 -12.54 38 -19 38 C-19 31.73 -19 25.46 -19 19 C-12.73 19 -6.46 19 0 19 C0 12.73 0 6.46 0 0 Z " fill="#DBCDA7" transform="translate(453,56)"/>
<path d="M0 0 C2.97 0 5.94 0 9 0 C9 9.24 9 18.48 9 28 C2.73 28 -3.54 28 -10 28 C-10 21.73 -10 15.46 -10 9 C-6.7 9 -3.4 9 0 9 C0 6.03 0 3.06 0 0 Z " fill="#E8D9B1" transform="translate(733,123)"/>
<path d="M0 0 C2.97 0 5.94 0 9 0 C9 9.24 9 18.48 9 28 C2.73 28 -3.54 28 -10 28 C-10 21.73 -10 15.46 -10 9 C-6.7 9 -3.4 9 0 9 C0 6.03 0 3.06 0 0 Z " fill="#E8D9B1" transform="translate(733,85)"/>
<path d="M0 0 C6.6 0 13.2 0 20 0 C20 6.27 20 12.54 20 19 C13.4 19 6.8 19 0 19 C0 12.73 0 6.46 0 0 Z " fill="#E7D8B0" transform="translate(694,36)"/>
<path d="M0 0 C6.6 0 13.2 0 20 0 C20 6.27 20 12.54 20 19 C13.4 19 6.8 19 0 19 C0 12.73 0 6.46 0 0 Z " fill="#E5D6AE" transform="translate(453,36)"/>
<path d="M0 0 C6.6 0 13.2 0 20 0 C20 6.27 20 12.54 20 19 C13.4 19 6.8 19 0 19 C0 12.73 0 6.46 0 0 Z " fill="#E7D8B0" transform="translate(405,36)"/>
<path d="M0 0 C3.63 0 7.26 0 11 0 C11 25.08 11 50.16 11 76 C10.67 76 10.34 76 10 76 C10 60.49 10 44.98 10 29 C3.73 29 -2.54 29 -9 29 C-9 28.67 -9 28.34 -9 28 C-6.03 28 -3.06 28 0 28 C0 18.76 0 9.52 0 0 Z " fill="#DDCFA8" transform="translate(212,75)"/>
<path d="M0 0 C6.27 0 12.54 0 19 0 C19 6.27 19 12.54 19 19 C12.73 19 6.46 19 0 19 C0 12.73 0 6.46 0 0 Z " fill="#E8D9B1" transform="translate(78,36)"/>
<path d="M0 0 C6.6 0 13.2 0 20 0 C20 25.08 20 50.16 20 76 C19.67 76 19.34 76 19 76 C19 57.19 19 38.38 19 19 C16.03 19 13.06 19 10 19 C10 15.7 10 12.4 10 9 C6.7 9 3.4 9 0 9 C0 6.03 0 3.06 0 0 Z " fill="#DBCDA7" transform="translate(145,75)"/>
<path d="M0 0 C3.63 0 7.26 0 11 0 C11 9.57 11 19.14 11 29 C7.37 29 3.74 29 0 29 C0 22.73 0 16.46 0 10 C-2.97 10 -5.94 10 -9 10 C-9 9.67 -9 9.34 -9 9 C-6.03 9 -3.06 9 0 9 C0 6.03 0 3.06 0 0 Z " fill="#DDCFA9" transform="translate(241,75)"/>
<path d="M0 0 C3.63 0 7.26 0 11 0 C11 6.27 11 12.54 11 19 C7.37 19 3.74 19 0 19 C0 12.73 0 6.46 0 0 Z " fill="#E1D3AC" transform="translate(347,152)"/>
<path d="M0 0 C0.33 0 0.66 0 1 0 C1 2.97 1 5.94 1 9 C3.64 9 6.28 9 9 9 C9 6.03 9 3.06 9 0 C9.33 0 9.66 0 10 0 C10 2.97 10 5.94 10 9 C12.97 9 15.94 9 19 9 C19 12.3 19 15.6 19 19 C16.03 19 13.06 19 10 19 C10 37.81 10 56.62 10 76 C9.67 76 9.34 76 9 76 C9 54.22 9 32.44 9 10 C6.03 10 3.06 10 0 10 C0 6.7 0 3.4 0 0 Z " fill="#BBB190" transform="translate(569,75)"/>
<path d="M0 0 C2.97 0 5.94 0 9 0 C9 6.27 9 12.54 9 19 C6.03 19 3.06 19 0 19 C0 12.73 0 6.46 0 0 Z " fill="#EADBB2" transform="translate(762,113)"/>
<path d="M0 0 C2.97 0 5.94 0 9 0 C9 6.27 9 12.54 9 19 C6.03 19 3.06 19 0 19 C0 12.73 0 6.46 0 0 Z " fill="#EADBB2" transform="translate(483,75)"/>
<path d="M0 0 C3.3 0 6.6 0 10 0 C10 25.08 10 50.16 10 76 C9.67 76 9.34 76 9 76 C9 53.89 9 31.78 9 9 C6.03 9 3.06 9 0 9 C0 6.03 0 3.06 0 0 Z " fill="#CFC29F" transform="translate(579,75)"/>
<path d="M0 0 C3.3 0 6.6 0 10 0 C10 2.97 10 5.94 10 9 C6.7 9 3.4 9 0 9 C0 6.03 0 3.06 0 0 Z " fill="#E8D9B1" transform="translate(675,75)"/>
<path d="M0 0 C3.3 0 6.6 0 10 0 C10 2.97 10 5.94 10 9 C6.7 9 3.4 9 0 9 C0 6.03 0 3.06 0 0 Z " fill="#E8D9B1" transform="translate(386,75)"/>
<path d="M0 0 C2.97 0 5.94 0 9 0 C9 2.97 9 5.94 9 9 C6.03 9 3.06 9 0 9 C0 6.03 0 3.06 0 0 Z " fill="#EADBB2" transform="translate(801,162)"/>
<path d="M0 0 C2.97 0 5.94 0 9 0 C9 2.97 9 5.94 9 9 C6.03 9 3.06 9 0 9 C0 6.03 0 3.06 0 0 Z " fill="#282928" transform="translate(579,85)"/>
</svg>
